<svg xmlns="http://www.w3.org/2000/svg" viewBox="0 0 64 64" role="img" aria-labelledby="title desc">
  <title id="title">Asaan Guide avatar</title>
  <desc id="desc">A circular illustrated assistant avatar with dark hair and a blue outline.</desc>
  <defs>
    <linearGradient id="bg" x1="0%" x2="100%" y1="0%" y2="100%">
      <stop offset="0%" stop-color="#f7d26c" />
      <stop offset="100%" stop-color="#f0b341" />
    </linearGradient>
  </defs>
  <circle cx="32" cy="32" r="31" fill="#1662f3" />
  <circle cx="32" cy="32" r="27" fill="url(#bg)" />
  <path fill="#503226" d="M19 29c0-9.4 5.6-16.2 13-16.2S45 19.6 45 29v6.3c0 5.1-2.3 9.6-5.9 12.4l-14.2-.1c-3.6-2.8-5.9-7.3-5.9-12.3V29Z"/>
  <path fill="#f5c7a4" d="M23.7 29.8c0-6.6 3.9-12 8.3-12 4.5 0 8.4 5.4 8.4 12v6.4c0 5.4-3.8 10.2-8.4 10.2-4.5 0-8.3-4.8-8.3-10.2v-6.4Z"/>
  <path fill="#40261e" d="M23.8 29.5c1.1-5.8 4.4-9.8 8.2-9.8 3.7 0 7 4 8.1 9.8-.3-7.8-3.7-13.8-8.1-13.8-4.5 0-7.9 6-8.2 13.8Z"/>
  <path fill="#503226" d="M24.4 47.5c2.1 1.9 4.8 3 7.6 3 2.8 0 5.4-1.1 7.5-3l1.7 7.2H22.7l1.7-7.2Z"/>
  <circle cx="28.5" cy="31.4" r="1.2" fill="#3a271f"/>
  <circle cx="35.5" cy="31.4" r="1.2" fill="#3a271f"/>
  <path fill="none" stroke="#c06c54" stroke-linecap="round" stroke-width="1.4" d="M28.5 38.2c1.1 1 2.3 1.5 3.5 1.5 1.3 0 2.5-.5 3.6-1.5"/>
</svg>
