<svg xmlns="http://www.w3.org/2000/svg" viewBox="0 0 520 360" fill="none">
  <defs>
    <linearGradient id="body" x1="176" y1="66" x2="342" y2="274" gradientUnits="userSpaceOnUse">
      <stop stop-color="#FBFCFE"/>
      <stop offset="1" stop-color="#E7EDF4"/>
    </linearGradient>
    <linearGradient id="edge" x1="179" y1="74" x2="334" y2="274" gradientUnits="userSpaceOnUse">
      <stop stop-color="#FFFFFF"/>
      <stop offset="1" stop-color="#CFD8E4"/>
    </linearGradient>
    <filter id="shadow" x="118" y="44" width="284" height="286" filterUnits="userSpaceOnUse" color-interpolation-filters="sRGB">
      <feDropShadow dx="0" dy="20" stdDeviation="20" flood-color="#081321" flood-opacity="0.24"/>
    </filter>
  </defs>
  <ellipse cx="260" cy="298" rx="112" ry="22" fill="#07101A" fill-opacity="0.22"/>
  <g filter="url(#shadow)">
    <path d="M179 96C179 76.118 195.118 60 215 60H305C324.882 60 341 76.118 341 96V252C341 271.882 324.882 288 305 288H215C195.118 288 179 271.882 179 252V96Z" fill="url(#body)"/>
    <path d="M179 96C179 76.118 195.118 60 215 60H305C324.882 60 341 76.118 341 96V252C341 271.882 324.882 288 305 288H215C195.118 288 179 271.882 179 252V96Z" stroke="url(#edge)" stroke-width="5"/>
    <path d="M216 82H304" stroke="#E7D39C" stroke-width="6" stroke-linecap="round"/>
    <rect x="213" y="120" width="94" height="88" rx="20" fill="#122338"/>
    <rect x="227" y="136" width="66" height="38" rx="10" fill="#182C45"/>
    <circle cx="260" cy="240" r="18" fill="#F5C542" fill-opacity="0.18"/>
    <circle cx="260" cy="240" r="9" fill="#F5C542"/>
    <path d="M222 229H237" stroke="#D4DDE8" stroke-width="6" stroke-linecap="round"/>
    <path d="M283 229H298" stroke="#D4DDE8" stroke-width="6" stroke-linecap="round"/>
    <path d="M216 274H304" stroke="#D4DDE8" stroke-opacity="0.75" stroke-width="6" stroke-linecap="round"/>
  </g>
</svg>