<svg width="333.33" height="58.667" version="1.1" viewBox="0 0 333.33 58.667" xmlns="http://www.w3.org/2000/svg"> <defs> <clipPath id="clipPath1229-4"> <path transform="translate(-134.23 -761.61)" d="M 0,824.882 H 612.283 V 0 H 0 Z"/> </clipPath> </defs> <path fill="currentColor" transform="matrix(2.4215 0 0 -2.4215 212.08 41.004)" d="m-48.789 16.933c-1.259 0-2.3949-0.90763-3.2109-2.3616l-0.0073-0.0073-13.009-21.853h5.3903l10.837 18.23 4.3305-7.289h-6.6518l-2.4762-4.1611h11.611l4.0361-6.7849h5.3726l-12.969 21.798-0.01371 0.0032c-0.816 1.492-1.965 2.4262-3.24 2.4262zm-21.38-0.1105v-13.27c0-2.572-0.79147-4.3672-2.3665-5.4032-1.297-0.821-3.3062-1.2349-6.0372-1.2349h-8.794v-4.2087h8.794c4.051 0 7.0989 0.77637 9.1489 2.3294 2.306 1.791 3.4578 4.6279 3.4578 8.5109v13.277zm64.176-5.5137c-4.844 0-7.4868-2.8548-8.3528-6.6808-0.14-0.616-0.31053-1.8153-0.31053-2.5883 0-0.876 0.1826-2.1311 0.3436-2.7891 0.917-3.756 3.4408-6.5429 8.3198-6.5429 4.891 0 7.0623 2.5144 8.1633 5.9864 0.261 0.823 0.49927 2.1679 0.49927 3.3029 0 0.867-0.1816 2.1126-0.3436 2.7706-0.917 3.755-3.359 6.5413-8.3189 6.5413zm-16.455-0.0056c-1.207 0-2.2985-0.2056-3.2835-0.6146-0.988-0.409-1.7341-1.009-2.2471-1.797-0.514-0.789-0.76947-1.6385-0.76947-2.5455 0-0.826 0.20812-1.573 0.62912-2.239 0.42-0.665 1.057-1.2252 1.914-1.6752 0.662-0.351 1.8137-0.72355 3.4537-1.1235 1.644-0.394 2.7035-0.68955 3.1835-0.87755 0.748-0.287 1.2869-0.63983 1.6099-1.0598 0.323-0.422 0.48636-0.91567 0.48636-1.4817 0-0.557-0.16814-1.0702-0.50814-1.5422-0.336-0.471-0.84935-0.84023-1.5414-1.1082-0.691-0.272-1.4856-0.4057-2.3866-0.4057-1.017 0-1.9316 0.17676-2.7456 0.53475-0.811 0.354-1.4084 0.81998-1.7954 1.397-0.388 0.576-0.6314 1.3161-0.7364 2.2181l-2.2431-0.19358c0.033-1.201 0.36301-2.2777 0.98401-3.2327 0.621-0.953 1.4794-1.6646 2.5754-2.1406 1.096-0.47 2.454-0.70897 4.074-0.70897 1.277 0 2.4249 0.23433 3.4489 0.70333 1.019 0.471 1.8027 1.1283 2.3487 1.9753 0.544 0.848 0.81625 1.748 0.81625 2.706 0 0.966-0.24827 1.817-0.74527 2.556-0.496 0.741-1.2668 1.3529-2.3108 1.8349-0.717 0.326-2.0356 0.71075-3.9586 1.1477-1.919 0.438-3.1116 0.86486-3.5666 1.2849-0.463 0.416-0.69446 0.94801-0.69446 1.597 0 0.743 0.32601 1.3781 0.98401 1.9091 0.651 0.527 1.6941 0.78882 3.1271 0.78882 1.372 0 2.4074-0.29148 3.1134-0.86948 0.703-0.583 1.1143-1.442 1.2373-2.581l2.2769 0.17664c-0.037 1.051-0.33255 1.9971-0.87755 2.8311-0.547 0.833-1.324 1.4644-2.339 1.8914-1.014 0.43-2.1864 0.64445-3.5134 0.64445zm26.476-0.30412v-17.988h11.188v2.4681h-8.7424v15.52zm18.945 0-6.6792-17.988h2.5149l1.864 5.4387h7.6955l1.9979-5.4387h2.702l-7.0889 17.988zm11.098 0v-17.988h2.452v7.9842h2.6786c0.611 0 1.0519-0.028916 1.3179-0.087916 0.368-0.091 0.72906-0.2493 1.0881-0.4783 0.352-0.231 0.75337-0.63321 1.1994-1.2042 0.452-0.573 1.0218-1.3977 1.7148-2.4737l2.3697-3.7401h2.9666l-3.1021 4.891c-0.619 0.955-1.196 1.797-1.676 2.381-0.273 0.332-0.73981 0.7645-1.1558 0.9695 1.572 0.137 2.4257 0.72427 3.2497 1.6043 0.82 0.875 1.2332 1.9535 1.2332 3.2295 0 0.99-0.24908 1.8969-0.74608 2.7149-0.497 0.817-1.1606 1.3895-1.9906 1.7115-0.834 0.326-2.0475 0.48636-3.6425 0.48636zm-9.6877-1.6752 3.2771-8.9392h-6.3283zm-30.378-0.076624c3.37 0 5.1722-2.0133 5.8912-4.7563 0.074-0.28 0.30014-1.4089 0.31214-2.2939 0.012-0.998-0.14951-1.8701-0.21051-2.1971-0.565-3.003-2.6618-5.2637-5.9928-5.2637-3.265 0-5.2228 2.0768-5.9138 4.8918-0.107 0.428-0.25614 1.0339-0.28714 2.5939-0.013 0.623 0.20116 1.8038 0.24116 1.9898 0.627 2.884 2.5317 5.0354 5.9597 5.0354zm42.517-0.23632h5.6024c1.322 0 2.2949-0.27393 2.9109-0.82593 0.612-0.548 0.92271-1.2467 0.92271-2.0987 0-0.581-0.15926-1.1214-0.47426-1.6164-0.319-0.495-0.78194-0.85561-1.3929-1.0816-0.608-0.225-1.4569-0.33715-2.5439-0.33715h-5.0249z" clip-path="url(#clipPath1229-4)"/> </svg>
