<svg xmlns="http://www.w3.org/2000/svg" width="150" height="20" viewBox="0 0 150 20" fill="none">
  <g clip-path="url(#clip0_63_2112)">
    <path d="M147.137 1.01562V14.6967L140.438 7.52459L133.739 14.6967V1.01562H130.879V18.7829H132.844C133.095 18.783 133.342 18.7317 133.572 18.632C133.801 18.5323 134.008 18.3865 134.18 18.2036L140.433 11.5136L146.687 18.2036C146.858 18.3865 147.064 18.5323 147.294 18.632C147.524 18.7317 147.772 18.783 148.022 18.7829H149.994V1.01562H147.137Z" fill="#FF7900"/>
    <path d="M14.6669 8.29631H3.74381C3.62343 8.29885 3.50378 8.27703 3.39206 8.23213C3.28033 8.18722 3.17886 8.12017 3.09372 8.03504C3.00859 7.9499 2.94154 7.84843 2.89663 7.7367C2.85173 7.62498 2.82988 7.50533 2.83242 7.38495V5.077C2.82988 4.95662 2.85173 4.83696 2.89663 4.72525C2.94154 4.61353 3.00859 4.51205 3.09372 4.42692C3.17886 4.34177 3.28033 4.27472 3.39206 4.22982C3.50378 4.18492 3.62343 4.1631 3.74381 4.16564H15.6166C15.9184 4.16725 16.2158 4.09333 16.4818 3.95059C16.7478 3.80784 16.9738 3.60082 17.1393 3.34839C17.6057 2.62541 17.9671 1.84002 18.2131 1.01562H3.74381C1.92379e-05 1.01562 0 4.27114 0 4.27114V7.86389C0 7.86389 1.92379e-05 11.1194 3.74381 11.1194H14.6669C14.7873 11.1168 14.9069 11.1388 15.0186 11.1837C15.1303 11.2286 15.2318 11.2956 15.317 11.3807C15.4021 11.4659 15.4691 11.5674 15.514 11.6791C15.559 11.7908 15.5809 11.9104 15.5783 12.0308V14.7205C15.5809 14.8409 15.559 14.9605 15.514 15.0722C15.4691 15.1839 15.4021 15.2854 15.317 15.3705C15.2318 15.4557 15.1303 15.5227 15.0186 15.5677C14.9069 15.6126 14.7873 15.6344 14.6669 15.6318H2.59656C2.2947 15.6301 1.99721 15.704 1.73123 15.8468C1.46525 15.9895 1.23925 16.1966 1.07381 16.4491C0.607459 17.172 0.245906 17.9575 0 18.7818H14.6669C18.4107 18.7818 18.4107 15.5263 18.4107 15.5263V11.5508C18.4107 11.5508 18.4107 8.29631 14.6669 8.29631Z" fill="#FF7900"/>
    <path d="M62.287 1.01562H59.2632V14.4639L47.2994 1.60321C47.1283 1.41932 46.9211 1.27271 46.6907 1.1725C46.4604 1.07229 46.2119 1.02064 45.9608 1.0208H43.8359V18.7881H46.8597V5.33976L58.8421 18.2025C59.0132 18.3861 59.2203 18.5324 59.4504 18.6325C59.6806 18.7325 59.9288 18.784 60.1797 18.7839H62.287V1.01562Z" fill="#FF7900"/>
    <path d="M37.1854 1.01562V15.7819C37.1854 16.0012 36.3485 16.3777 31.1202 16.3777C25.8919 16.3777 25.055 16.0022 25.055 15.7819V1.01562H22.0312V17.0439C22.9623 19.1584 29.6502 19.0374 31.1202 19.0374C32.5902 19.0374 39.2823 19.1584 40.2092 17.0439V1.01562H37.1854Z" fill="#FF7900"/>
    <path d="M104.105 11.1194C105.249 10.6187 105.183 6.86252 105.183 6.06804C105.183 5.27355 105.249 1.51631 104.105 1.01562H87.9805V4.16563H102.023C102.162 4.16563 102.359 4.69528 102.359 6.06804C102.359 7.76562 102.16 8.29631 102.023 8.29631H87.9805V18.7828H90.8418V11.1194H94.9239L102.052 18.2471C102.394 18.5898 102.859 18.7825 103.344 18.7828H106.939L99.275 11.1194H104.105Z" fill="#FF7900"/>
    <path d="M118.031 0.766933C116.561 0.766933 109.733 0.644835 108.807 2.76035V11.9569C109.608 11.718 110.372 11.3651 111.074 10.909C111.306 10.7592 111.496 10.5539 111.628 10.3119C111.76 10.0698 111.829 9.79855 111.83 9.52278V4.08657C111.83 3.75554 112.919 3.42452 118.031 3.42452C123.144 3.42452 124.232 3.75554 124.232 4.08657V7.38348C125.034 7.14384 125.797 6.7906 126.499 6.3345C126.731 6.18473 126.921 5.97948 127.053 5.73739C127.185 5.49531 127.255 5.22407 127.256 4.94831V2.76035C126.325 0.644835 119.497 0.766933 118.031 0.766933Z" fill="#FF7900"/>
    <path d="M118.032 19.0426C119.502 19.0426 126.331 19.1647 127.257 17.0491V7.85156C126.454 8.09073 125.69 8.44401 124.989 8.90054C124.757 9.05031 124.567 9.25557 124.435 9.49765C124.302 9.73974 124.233 10.011 124.233 10.2867V15.7229C124.233 16.054 123.145 16.385 118.032 16.385C112.92 16.385 111.831 16.055 111.831 15.7229V12.426C111.029 12.6656 110.265 13.0188 109.564 13.475C109.332 13.6247 109.141 13.8299 109.008 14.072C108.877 14.3141 108.807 14.5854 108.807 14.8612V17.0502C109.738 19.1657 116.565 19.0436 118.031 19.0436" fill="#FF7900"/>
    <path d="M83.2391 8.29422H75.7753C75.4993 8.29408 75.2277 8.36338 74.9854 8.4957C74.7432 8.62803 74.5381 8.81916 74.3891 9.05149C73.9785 9.69353 73.6598 10.39 73.4425 11.1205H81.0718C81.2601 11.1205 81.4918 11.3273 81.4918 13.5401C81.4918 15.4238 81.256 15.6338 81.0718 15.6338H69.3408C69.2022 15.6338 68.7687 15.039 68.7687 9.89974C68.7687 4.76043 69.2022 4.1656 69.3408 4.1656H81.5239C81.8257 4.16731 82.1233 4.09343 82.3892 3.95068C82.6552 3.80793 82.8812 3.60089 83.0466 3.34839C83.513 2.62539 83.8744 1.84 84.1204 1.01562H67.7353C65.7977 1.86493 65.9094 8.55288 65.9094 9.89874C65.9094 11.2446 65.7977 17.9335 67.7353 18.7818H83.2391C84.3832 18.2801 84.317 14.3335 84.317 13.538C84.317 12.7425 84.3832 8.79491 83.2391 8.29422Z" fill="#FF7900"/>
  </g>
  <defs>
    <clipPath id="clip0_63_2112">
      <rect width="150" height="19.6552" fill="white"/>
    </clipPath>
  </defs>
</svg>